<svg width="44" height="44" viewBox="0 0 44 44" fill="none" xmlns="http://www.w3.org/2000/svg">
<path fill-rule="evenodd" clip-rule="evenodd" d="M22 36C14.268 36 8 29.73 8 22C8 14.27 14.268 8 22 8C29.732 8 36 14.27 36 22C36 29.73 29.732 36 22 36V36ZM22 6C13.163 6 6 13.16 6 22C6 30.84 13.163 38 22 38C30.837 38 38 30.84 38 22C38 13.16 30.837 6 22 6V6ZM28 21H23V16C23 15.45 22.553 15 22 15C21.447 15 21 15.45 21 16V21H16C15.447 21 15 21.45 15 22C15 22.55 15.447 23 16 23H21V28C21 28.55 21.447 29 22 29C22.553 29 23 28.55 23 28V23H28C28.553 23 29 22.55 29 22C29 21.45 28.553 21 28 21V21Z" fill="#0D0D0D"/>
</svg>
