<svg width="56" height="56" viewBox="0 0 56 56" fill="none" xmlns="http://www.w3.org/2000/svg">
<path d="M53.0817 16.938C53.7645 17.3173 54.3335 17.8863 54.7888 18.645C55.244 19.4037 55.4716 20.1625 55.4716 20.9212V43.3409C55.4716 44.0996 55.206 44.7445 54.6749 45.2756C54.1439 45.8067 53.499 46.0723 52.7402 46.0723H50.0089V47.8932C50.0089 48.6519 49.7434 49.2968 49.2123 49.8279C48.6812 50.359 48.0363 50.6245 47.2776 50.6245H40.9044V55.1768H39.0835V50.6245H37.2626V55.1768H35.4417V50.6245H29.0686V48.8036H37.2626V30.8223L29.6376 15.4585L24.0611 18.5312C23.1507 19.0623 22.6955 19.859 22.6955 20.9212V25.132H20.8746V20.9212C20.8746 20.3901 20.9884 19.8779 21.216 19.3848C21.4436 18.8916 21.7281 18.4174 22.0695 17.9622C22.411 17.507 22.8093 17.1656 23.2645 16.938L29.41 13.5238L31.0033 11.9305C31.5344 11.3994 32.1793 11.1338 32.938 11.1338C33.2415 11.1338 33.545 11.1718 33.8485 11.2477L34.1899 9.88198C34.3416 9.35089 34.683 8.87669 35.2141 8.45941C35.7452 8.04212 36.2763 7.83347 36.8074 7.83347H37.2626V5.89877C36.7315 5.67116 36.2953 5.31078 35.9539 4.81762C35.6124 4.32446 35.4417 3.81233 35.4417 3.28123C35.4417 2.52253 35.7073 1.87763 36.2384 1.34653C36.7695 0.815437 37.4144 0.549892 38.1731 0.549892C38.9318 0.549892 39.5767 0.815437 40.1078 1.34653C40.6389 1.87763 40.9044 2.52253 40.9044 3.28123C40.9044 3.81233 40.7337 4.32446 40.3923 4.81762C40.0509 5.31078 39.6146 5.67116 39.0835 5.89877V7.83347H39.5388C39.9181 7.83347 40.2785 7.92831 40.6199 8.11799C40.9613 8.30767 41.2838 8.55424 41.5873 8.85773C41.8907 9.16121 42.0804 9.50263 42.1563 9.88198L42.4977 11.2477C42.8012 11.1718 43.1047 11.1338 43.4082 11.1338C44.1669 11.1338 44.8118 11.3994 45.3429 11.9305L46.9361 13.5238L53.0817 16.938ZM39.0835 3.28123C39.0835 3.28123 39.0835 3.12949 39.0835 2.82601C39.0835 2.52253 38.7801 2.37079 38.1731 2.37079C37.5661 2.37079 37.2626 2.67427 37.2626 3.28123C37.2626 3.8882 37.5661 4.19168 38.1731 4.19168C38.7801 4.19168 39.0835 3.8882 39.0835 3.28123ZM38.1731 28.5462L43.6358 17.7346L42.2701 18.8727C41.8907 19.1003 41.4735 19.2141 41.0182 19.2141C40.9424 19.2141 40.8665 19.2141 40.7906 19.2141C40.3354 19.2141 39.956 18.9865 39.6526 18.5312L38.1731 16.5965L36.6936 18.5312C36.3901 18.9865 36.0108 19.2141 35.5555 19.2141C35.4797 19.2141 35.4038 19.2141 35.3279 19.2141C34.8727 19.2141 34.4554 19.1003 34.0761 18.8727L32.7104 17.7346L38.1731 28.5462ZM44.091 13.1824C43.8634 13.0306 43.6358 12.9547 43.4082 12.9547C43.2564 12.9547 43.1047 12.9927 42.9529 13.0685L39.4249 15.3447L41.0182 17.3932L45.0014 14.0928L44.091 13.1824ZM36.8074 9.65437C36.3522 9.65437 36.0866 9.88198 36.0108 10.3372L35.5555 12.2719L38.1731 13.979L40.7906 12.2719L40.3354 10.3372C40.2595 9.88198 39.994 9.65437 39.5388 9.65437H36.8074ZM32.2552 13.1824L31.3447 14.0928L35.3279 17.3932L36.9212 15.3447L33.3932 13.0685C33.2415 12.9927 33.0898 12.9547 32.938 12.9547C32.7104 12.9547 32.4828 13.0306 32.2552 13.1824ZM53.6507 43.3409V42.4305H50.0089V44.2514H52.7402C53.3472 44.2514 53.6507 43.9479 53.6507 43.3409ZM50.0089 40.6096H53.6507V20.9212C53.6507 19.859 53.1955 19.0623 52.285 18.5312L46.7085 15.4585L39.0835 30.8223V48.8036H47.2776C47.8845 48.8036 48.188 48.5001 48.188 47.8932V23.3111H50.0089V40.6096ZM34.5313 36.0574C34.5313 36.0574 34.3796 36.0574 34.0761 36.0574C33.7726 36.0574 33.6208 35.7539 33.6208 35.1469C33.6208 34.5399 33.9243 34.2365 34.5313 34.2365C35.1383 34.2365 35.4417 34.5399 35.4417 35.1469C35.4417 35.7539 35.1383 36.0574 34.5313 36.0574ZM34.5313 40.6096C34.5313 40.6096 34.3796 40.6096 34.0761 40.6096C33.7726 40.6096 33.6208 40.3061 33.6208 39.6991C33.6208 39.0922 33.9243 38.7887 34.5313 38.7887C35.1383 38.7887 35.4417 39.0922 35.4417 39.6991C35.4417 40.3061 35.1383 40.6096 34.5313 40.6096ZM34.5313 45.1618C34.5313 45.1618 34.3796 45.1618 34.0761 45.1618C33.7726 45.1618 33.6208 44.8583 33.6208 44.2514C33.6208 43.6444 33.9243 43.3409 34.5313 43.3409C35.1383 43.3409 35.4417 43.6444 35.4417 44.2514C35.4417 44.8583 35.1383 45.1618 34.5313 45.1618ZM3.57607 55.1768C2.81736 55.1768 2.17246 54.9112 1.64137 54.3801C1.11027 53.849 0.844727 53.2041 0.844727 52.4454V50.6245C0.844727 49.8658 1.11027 49.2209 1.64137 48.6898C2.17246 48.1587 2.81736 47.8932 3.57607 47.8932V39.6991C2.81736 39.6991 2.17246 39.4336 1.64137 38.9025C1.11027 38.3714 0.844727 37.7265 0.844727 36.9678V33.326C0.844727 32.5673 1.11027 31.9224 1.64137 31.3913C2.17246 30.8602 2.81736 30.5947 3.57607 30.5947H4.48652V26.9529H6.30741V30.5947H9.9492V26.9529H11.7701V30.5947H17.2328C17.2328 29.836 17.4983 29.1911 18.0294 28.66C18.5605 28.1289 19.2054 27.8633 19.9641 27.8633H23.6059C24.3646 27.8633 25.0095 28.1289 25.5406 28.66C26.0717 29.1911 26.3373 29.836 26.3373 30.5947V38.7887C26.3373 39.8509 25.9769 40.7993 25.2561 41.6338C24.5353 42.4684 23.6818 42.9995 22.6955 43.2271V46.0723H20.8746V43.2271C20.04 43.0754 19.2813 42.6581 18.5985 41.9753C17.9156 41.2924 17.4983 40.5337 17.3466 39.6991H13.591V47.8932H24.5164C25.2751 47.8932 25.92 48.1587 26.4511 48.6898C26.9822 49.2209 27.2477 49.8658 27.2477 50.6245V52.4454C27.2477 53.2041 26.9822 53.849 26.4511 54.3801C25.92 54.9112 25.2751 55.1768 24.5164 55.1768H3.57607ZM19.9641 29.6842C19.3572 29.6842 19.0537 29.9877 19.0537 30.5947V38.7887C19.0537 39.5474 19.3192 40.1923 19.8503 40.7234C20.3814 41.2545 21.0263 41.52 21.785 41.52C22.5437 41.52 23.1886 41.2545 23.7197 40.7234C24.2508 40.1923 24.5164 39.5474 24.5164 38.7887V30.5947C24.5164 29.9877 24.2129 29.6842 23.6059 29.6842H19.9641ZM2.66562 36.9678C2.66562 37.5748 2.9691 37.8783 3.57607 37.8783H17.2328V32.4156H3.57607C2.9691 32.4156 2.66562 32.719 2.66562 33.326V36.9678ZM5.39697 39.6991V47.8932H11.7701V39.6991H5.39697ZM2.66562 50.6245V52.4454C2.66562 53.0524 2.9691 53.3559 3.57607 53.3559H24.5164C25.1233 53.3559 25.4268 53.0524 25.4268 52.4454V50.6245C25.4268 50.0176 25.1233 49.7141 24.5164 49.7141H3.57607C2.9691 49.7141 2.66562 50.0176 2.66562 50.6245Z" fill="#A58536"/>
</svg>
