<svg width="56" height="60" viewBox="0 0 56 60" fill="none" xmlns="http://www.w3.org/2000/svg">
<path d="M54.7448 55.1288C55.1242 55.5082 55.2001 55.8875 54.9725 56.2669C54.7448 56.798 54.2896 57.2911 53.6068 57.7464C51.1789 59.4155 47.5371 59.4535 42.6814 57.8602C42.6055 57.7843 42.4917 57.7464 42.34 57.7464C41.9606 57.5946 41.5433 57.4808 41.0881 57.4049C39.3431 57.0256 37.7498 56.9118 36.3083 57.0635C35.9289 57.0635 35.5496 57.1015 35.1702 57.1773C33.0458 57.6326 31.187 57.8602 29.5937 57.8602H26.4072C24.8139 57.8602 22.955 57.6326 20.8307 57.1773C20.4513 57.1015 20.072 57.0635 19.6926 57.0635C18.2511 56.9118 16.6578 57.0256 14.9128 57.4049C14.4575 57.4808 14.0402 57.5946 13.6609 57.7464C13.5091 57.7464 13.3953 57.7843 13.3195 57.8602C8.46375 59.4535 4.82195 59.4155 2.39409 57.7464C1.71126 57.2911 1.25603 56.798 1.02842 56.2669C0.80081 55.8875 0.876681 55.5082 1.25603 55.1288C7.70504 48.6798 13.4333 39.4995 18.4407 27.5878C18.4407 27.5119 18.4407 27.474 18.4407 27.474C18.896 26.3359 19.0477 25.1599 18.896 23.946C18.896 23.8701 18.896 23.8322 18.896 23.8322C18.7442 22.9976 18.4787 22.201 18.0993 21.4423C17.2647 19.6214 16.8854 17.7246 16.9613 15.752C16.9613 14.2345 17.7579 12.0343 19.3512 9.15121C19.7305 8.39251 20.1478 7.59586 20.603 6.76129C21.3618 5.47149 22.1963 4.14375 23.1068 2.77808C23.3344 2.39872 23.5999 2.01937 23.9034 1.64002C23.9793 1.41241 24.0552 1.26067 24.131 1.1848C24.4345 0.729572 24.8139 0.577835 25.2691 0.729576C25.7243 0.881317 25.9519 1.22273 25.9519 1.75383C25.9519 7.44412 26.4451 11.7687 27.4314 14.7277C27.5831 15.2588 27.7728 15.714 28.0004 16.0934C28.228 15.714 28.4177 15.2588 28.5695 14.7277C29.5558 11.7687 30.0489 7.44412 30.0489 1.75383C30.0489 1.22273 30.2766 0.881317 30.7318 0.729576C31.187 0.577835 31.5664 0.729572 31.8698 1.1848C31.9457 1.26067 32.0216 1.41241 32.0975 1.64002C32.4009 2.01937 32.6665 2.39872 32.8941 2.77808C33.8045 4.14375 34.6391 5.47149 35.3978 6.76129C35.853 7.59586 36.2703 8.39251 36.6497 9.15121C38.243 12.0343 39.0396 14.2725 39.0396 15.8658C39.1155 17.7625 38.7361 19.6214 37.9016 21.4423C37.5222 22.201 37.2567 22.9976 37.1049 23.8322C37.1049 23.8322 37.1049 23.8701 37.1049 23.946C36.9532 25.1599 37.1049 26.3359 37.5601 27.474C37.5601 27.474 37.5601 27.4929 37.5601 27.5309C37.5601 27.5688 37.5601 27.5878 37.5601 27.5878C42.5676 39.4995 48.2958 48.6798 54.7448 55.1288ZM20.9445 24.7426C20.9445 25.4255 20.8686 26.1083 20.7169 26.7911H35.284C35.1323 26.1083 35.0564 25.4255 35.0564 24.7426H20.9445ZM19.0098 15.9796C18.9339 16.5107 18.9339 17.0797 19.0098 17.6867C19.1615 18.7489 19.465 19.7352 19.9202 20.6456C20.2996 21.3285 20.5651 22.0492 20.7169 22.8079H35.284C35.4358 22.0492 35.7013 21.3285 36.0807 20.6456C36.5359 19.7352 36.8394 18.7489 36.9911 17.6867C37.067 17.0797 37.067 16.5107 36.9911 15.9796C36.9911 15.9796 36.9911 15.9416 36.9911 15.8658C36.9911 15.8658 36.9911 15.8278 36.9911 15.752C36.9911 14.6139 36.3083 12.7171 34.9426 10.0617C34.5632 9.30296 34.146 8.54425 33.6907 7.78554C33.1596 6.8751 32.5906 5.92671 31.9836 4.94039C31.8319 9.34089 31.3387 12.793 30.5042 15.2967C30.1248 16.3589 29.7075 17.1935 29.2523 17.8005C29.0247 18.1798 28.7971 18.4454 28.5695 18.5971C28.1901 18.8247 27.8108 18.8247 27.4314 18.5971C27.2038 18.4454 26.9762 18.1798 26.7486 17.8005C26.2933 17.1935 25.8761 16.3589 25.4967 15.2967C24.6621 12.793 24.169 9.34089 24.0172 4.94039C23.4103 5.92671 22.8412 6.8751 22.3101 7.78554C21.8549 8.54425 21.4376 9.30296 21.0583 10.0617C19.6926 12.7171 19.0098 14.6139 19.0098 15.752C19.0098 15.9037 19.0098 15.9796 19.0098 15.9796ZM52.4687 56.1531C52.5446 56.0772 52.6205 56.0013 52.6963 55.9255C46.3991 49.4006 40.8226 40.372 35.9669 28.8396H20.034C15.1783 40.372 9.6018 49.4006 3.30454 55.9255C3.38041 56.0013 3.45628 56.0772 3.53215 56.1531C4.89783 57.0635 6.9084 57.2532 9.56387 56.7221C11.3848 55.5082 13.0729 53.7632 14.6282 51.487C16.1836 49.2109 16.9613 47.3142 16.9613 45.7967C16.9613 45.1898 17.3027 44.8863 17.9855 44.8863C18.6683 44.8863 19.0098 45.1898 19.0098 45.7967C19.0098 48.6798 17.3027 51.9423 13.8885 55.5841C14.1161 55.5082 14.3058 55.4702 14.4575 55.4702C16.4302 55.015 18.2131 54.8633 19.8064 55.015C20.3375 55.0909 20.8307 55.1668 21.2859 55.2426C21.5135 55.3185 21.7411 55.3564 21.9687 55.3564C22.0446 55.2047 22.1205 54.9012 22.1963 54.446C22.7274 52.8527 22.993 51.6388 22.993 50.8042C22.993 50.1972 23.3344 49.8938 24.0172 49.8938C24.7001 49.8938 25.0415 50.1972 25.0415 50.8042C25.0415 51.8664 24.738 53.3079 24.131 55.1288C24.0552 55.3564 24.0172 55.5461 24.0172 55.6979C24.8518 55.7737 25.6484 55.8117 26.4072 55.8117H29.5937C30.8076 55.8117 32.2113 55.6599 33.8045 55.3564C33.8045 55.2047 33.7666 55.053 33.6907 54.9012C33.6149 54.7495 33.5769 54.5977 33.5769 54.446C33.1976 53.0803 33.0079 51.8664 33.0079 50.8042C33.0079 50.1972 33.3493 49.8938 34.0322 49.8938C34.715 49.8938 35.0564 50.1972 35.0564 50.8042C35.0564 51.7146 35.2081 52.7768 35.5116 53.9908C35.5116 54.0666 35.5496 54.1804 35.6254 54.3322C35.7013 54.4839 35.7392 54.6357 35.7392 54.7874C35.7392 54.9392 35.7772 55.015 35.853 55.015C35.9289 55.015 36.0427 55.015 36.1945 55.015C37.7878 54.8633 39.5707 55.015 41.5433 55.4702C41.8468 55.5461 42.1124 55.5841 42.34 55.5841C39.4569 52.094 38.0154 48.8316 38.0154 45.7967C38.0154 45.1898 38.3568 44.8863 39.0396 44.8863C39.7225 44.8863 40.0639 45.1898 40.0639 45.7967C40.0639 47.4659 40.7277 49.4385 42.0555 51.7146C43.3832 53.9908 44.8437 55.6599 46.437 56.7221C49.0925 57.2532 51.103 57.0635 52.4687 56.1531Z" fill="#A58536"/>
</svg>
