<svg width="24" height="24" viewBox="0 0 24 24" fill="none" xmlns="http://www.w3.org/2000/svg">
<path fill-rule="evenodd" clip-rule="evenodd" d="M16.1063 0.950691C17.3738 -0.316897 19.4306 -0.316897 20.6982 0.950691L23.0493 3.30076C24.3169 4.56943 24.3169 6.62615 23.0493 7.89374L7.89455 23.0485C7.28511 23.6579 6.45918 24 5.59752 24H1.08248C0.484952 24 0 23.515 0 22.9175V18.4014C0 17.5408 0.342065 16.7149 0.951502 16.1055L16.1063 0.950691ZM19.1672 2.48167C18.744 2.0595 18.0598 2.0595 17.6366 2.48167L15.6026 4.51565L19.4844 8.39744L21.5184 6.36345C21.9405 5.9402 21.9405 5.25607 21.5184 4.83282L19.1672 2.48167ZM17.9547 9.92756L14.0729 6.04578L2.48276 17.6359C2.27925 17.8394 2.16559 18.1144 2.16559 18.4012V21.8349H5.59814C5.88608 21.8349 6.16103 21.7212 6.36454 21.5177L17.9547 9.92756Z" fill="#292929"/>
</svg>
