<svg width="22" height="20" viewBox="0 0 22 20" fill="none" xmlns="http://www.w3.org/2000/svg">
    <path clip-rule="evenodd"
          d="M18.6449 3.56218C16.8905 1.65605 14.0967 1.48798 12.1597 3.17169L10.9999 4.18011L9.84016 3.17169C7.90321 1.48798 5.10939 1.65605 3.35492 3.56218C1.56803 5.50353 1.45965 8.57205 3.13446 10.5527C4.59157 12.2776 6.28954 14.1878 7.81798 15.6601C8.58406 16.3978 9.28622 17.0057 9.88 17.4234C10.521 17.8732 10.8795 17.9869 10.9999 17.9869C11.1204 17.9869 11.4788 17.8732 12.1199 17.4234C12.7136 17.0057 13.4158 16.3978 14.1819 15.6601C15.7103 14.1878 17.4083 12.2776 18.8654 10.5527C20.5393 8.57205 20.4318 5.50353 18.6449 3.56218ZM11.0018 1.59994C13.677 -0.723845 17.5324 -0.492372 19.9548 2.13836C22.4067 4.80332 22.6105 9.09764 20.2299 11.9146C18.7579 13.6566 17.0099 15.6262 15.4111 17.167C14.6135 17.9359 13.8317 18.6172 13.1249 19.1144C12.4663 19.5773 11.7076 20 10.9999 20C10.2922 20 9.53353 19.5773 8.87491 19.1144C8.16812 18.6172 7.3863 17.9359 6.58873 17.167C4.98988 15.6262 3.24189 13.6566 1.76995 11.9146C-0.610715 9.09764 -0.406922 4.80332 2.04507 2.13836C4.46743 -0.492372 8.32282 -0.723845 10.9981 1.59994L10.9999 1.60195L11.0018 1.59994Z"
          fill="#000"/>
</svg>
