<svg width="20" height="21" viewBox="0 0 20 21" fill="none" xmlns="http://www.w3.org/2000/svg">
<mask id="path-1-inside-1_1_3238" fill="white">
<path d="M10.6231 1.78663C10.4492 1.63701 10.2283 1.55486 10 1.55486C9.77168 1.55486 9.55082 1.63701 9.37692 1.78663L1.87692 8.23361C1.77073 8.32497 1.68546 8.43859 1.62702 8.5666C1.56857 8.6946 1.53836 8.83393 1.53846 8.97492V19.0553C1.53846 19.1585 1.57898 19.2574 1.65111 19.3303C1.72324 19.4033 1.82107 19.4443 1.92308 19.4443H5.76923C5.87124 19.4443 5.96907 19.4033 6.0412 19.3303C6.11332 19.2574 6.15385 19.1585 6.15385 19.0553V13.6102C6.15385 13.0945 6.35646 12.5998 6.7171 12.2351C7.07775 11.8705 7.56689 11.6656 8.07692 11.6656H11.9262C12.1787 11.6656 12.4288 11.7159 12.6621 11.8136C12.8954 11.9113 13.1074 12.0546 13.286 12.2351C13.4645 12.4157 13.6062 12.6301 13.7028 12.866C13.7995 13.102 13.8492 13.3549 13.8492 13.6102V19.0553C13.8492 19.1585 13.8898 19.2574 13.9619 19.3303C14.034 19.4033 14.1318 19.4443 14.2338 19.4443H18.0769C18.1789 19.4443 18.2768 19.4033 18.3489 19.3303C18.421 19.2574 18.4615 19.1585 18.4615 19.0553V8.97414C18.4615 8.83328 18.4313 8.6941 18.3728 8.56624C18.3144 8.43838 18.2292 8.32488 18.1231 8.23361L10.6231 1.78663ZM8.38077 0.60193C8.83279 0.213355 9.40673 0 10 0C10.5933 0 11.1672 0.213355 11.6192 0.60193L19.1192 7.04813C19.3953 7.28545 19.617 7.5806 19.7691 7.91317C19.9212 8.24573 20 8.60774 20 8.97414V19.0553C20 19.5711 19.7974 20.0657 19.4367 20.4304C19.0761 20.7951 18.587 21 18.0769 21H14.2338C13.7238 21 13.2347 20.7951 12.874 20.4304C12.5134 20.0657 12.3108 19.5711 12.3108 19.0553V13.6102C12.3108 13.5071 12.2702 13.4082 12.1981 13.3352C12.126 13.2623 12.0282 13.2213 11.9262 13.2213H8.07692C7.97492 13.2213 7.87709 13.2623 7.80496 13.3352C7.73283 13.4082 7.69231 13.5071 7.69231 13.6102V19.0553C7.69231 19.5711 7.4897 20.0657 7.12905 20.4304C6.7684 20.7951 6.27926 21 5.76923 21H1.92308C1.41305 21 0.923903 20.7951 0.563256 20.4304C0.202609 20.0657 0 19.5711 0 19.0553V8.97414C2.02392e-05 8.60774 0.0787988 8.24573 0.23088 7.91317C0.382961 7.5806 0.60471 7.28545 0.880769 7.04813L8.38077 0.60193Z"/>
</mask>
<path d="M10.6231 1.78663C10.4492 1.63701 10.2283 1.55486 10 1.55486C9.77168 1.55486 9.55082 1.63701 9.37692 1.78663L1.87692 8.23361C1.77073 8.32497 1.68546 8.43859 1.62702 8.5666C1.56857 8.6946 1.53836 8.83393 1.53846 8.97492V19.0553C1.53846 19.1585 1.57898 19.2574 1.65111 19.3303C1.72324 19.4033 1.82107 19.4443 1.92308 19.4443H5.76923C5.87124 19.4443 5.96907 19.4033 6.0412 19.3303C6.11332 19.2574 6.15385 19.1585 6.15385 19.0553V13.6102C6.15385 13.0945 6.35646 12.5998 6.7171 12.2351C7.07775 11.8705 7.56689 11.6656 8.07692 11.6656H11.9262C12.1787 11.6656 12.4288 11.7159 12.6621 11.8136C12.8954 11.9113 13.1074 12.0546 13.286 12.2351C13.4645 12.4157 13.6062 12.6301 13.7028 12.866C13.7995 13.102 13.8492 13.3549 13.8492 13.6102V19.0553C13.8492 19.1585 13.8898 19.2574 13.9619 19.3303C14.034 19.4033 14.1318 19.4443 14.2338 19.4443H18.0769C18.1789 19.4443 18.2768 19.4033 18.3489 19.3303C18.421 19.2574 18.4615 19.1585 18.4615 19.0553V8.97414C18.4615 8.83328 18.4313 8.6941 18.3728 8.56624C18.3144 8.43838 18.2292 8.32488 18.1231 8.23361L10.6231 1.78663ZM8.38077 0.60193C8.83279 0.213355 9.40673 0 10 0C10.5933 0 11.1672 0.213355 11.6192 0.60193L19.1192 7.04813C19.3953 7.28545 19.617 7.5806 19.7691 7.91317C19.9212 8.24573 20 8.60774 20 8.97414V19.0553C20 19.5711 19.7974 20.0657 19.4367 20.4304C19.0761 20.7951 18.587 21 18.0769 21H14.2338C13.7238 21 13.2347 20.7951 12.874 20.4304C12.5134 20.0657 12.3108 19.5711 12.3108 19.0553V13.6102C12.3108 13.5071 12.2702 13.4082 12.1981 13.3352C12.126 13.2623 12.0282 13.2213 11.9262 13.2213H8.07692C7.97492 13.2213 7.87709 13.2623 7.80496 13.3352C7.73283 13.4082 7.69231 13.5071 7.69231 13.6102V19.0553C7.69231 19.5711 7.4897 20.0657 7.12905 20.4304C6.7684 20.7951 6.27926 21 5.76923 21H1.92308C1.41305 21 0.923903 20.7951 0.563256 20.4304C0.202609 20.0657 0 19.5711 0 19.0553V8.97414C2.02392e-05 8.60774 0.0787988 8.24573 0.23088 7.91317C0.382961 7.5806 0.60471 7.28545 0.880769 7.04813L8.38077 0.60193Z" fill="#0D0D0D"/>
<path d="M10.6231 1.78663L9.31869 3.30273L9.31935 3.3033L10.6231 1.78663ZM10 1.55486L10 -0.445141L10 1.55486ZM9.37692 1.78663L10.6807 3.3033L10.6813 3.30273L9.37692 1.78663ZM1.87692 8.23361L0.573195 6.71694L0.57254 6.7175L1.87692 8.23361ZM1.53846 8.97492L3.53846 8.97492L3.53846 8.97342L1.53846 8.97492ZM8.07692 11.6656L8.07692 9.66557L8.07692 11.6656ZM11.9262 11.6656L11.9262 13.6656L11.9262 11.6656ZM18.4615 8.97414L20.4615 8.97414L20.4615 8.97406L18.4615 8.97414ZM18.1231 8.23361L19.4275 6.7175L19.4268 6.71694L18.1231 8.23361ZM8.38077 0.60193L9.68441 2.11868L9.68454 2.11857L8.38077 0.60193ZM11.6192 0.60193L10.3155 2.11857L10.3156 2.11868L11.6192 0.60193ZM19.1192 7.04813L20.423 5.5315L20.4229 5.53138L19.1192 7.04813ZM20 8.97414L22 8.97414L22 8.97403L20 8.97414ZM20 19.0553L18 19.0553L20 19.0553ZM14.2338 21L14.2338 19L14.2338 21ZM1.92308 21L1.92308 19L1.92308 21ZM0 8.97414L-2 8.97403V8.97414H0ZM0.880769 7.04813L-0.422868 5.53138L-0.423001 5.5315L0.880769 7.04813ZM11.9275 0.270517C11.3926 -0.189666 10.7095 -0.445141 10 -0.445141V3.55486C9.74713 3.55486 9.50578 3.4637 9.31869 3.30273L11.9275 0.270517ZM10 -0.445141C9.2905 -0.445141 8.60742 -0.189667 8.07254 0.270517L10.6813 3.30273C10.4942 3.4637 10.2529 3.55486 10 3.55486L10 -0.445141ZM8.0732 0.269953L0.573195 6.71694L3.18065 9.75028L10.6807 3.3033L8.0732 0.269953ZM0.57254 6.7175C0.246148 6.99831 -0.0143544 7.34614 -0.192326 7.73593L3.44636 9.39726C3.38527 9.53104 3.29532 9.65163 3.18131 9.74972L0.57254 6.7175ZM-0.192326 7.73593C-0.370268 8.12567 -0.461859 8.54887 -0.461538 8.97642L3.53846 8.97342C3.53857 9.11899 3.50741 9.26353 3.44636 9.39726L-0.192326 7.73593ZM-0.461538 8.97492V19.0553H3.53846V8.97492H-0.461538ZM-0.461538 19.0553C-0.461538 19.6817 -0.215667 20.287 0.229025 20.7366L3.0732 17.9241C3.37363 18.2279 3.53846 18.6352 3.53846 19.0553H-0.461538ZM0.229025 20.7366C0.674466 21.1871 1.28339 21.4443 1.92308 21.4443V17.4443C2.35875 17.4443 2.77202 17.6195 3.0732 17.9241L0.229025 20.7366ZM1.92308 21.4443H5.76923V17.4443H1.92308V21.4443ZM5.76923 21.4443C6.40892 21.4443 7.01784 21.1871 7.46328 20.7366L4.61911 17.9241C4.92029 17.6195 5.33356 17.4443 5.76923 17.4443V21.4443ZM7.46328 20.7366C7.90798 20.287 8.15385 19.6817 8.15385 19.0553H4.15385C4.15385 18.6352 4.31867 18.2279 4.61911 17.9241L7.46328 20.7366ZM8.15385 19.0553V13.6102H4.15385V19.0553H8.15385ZM8.15385 13.6102C8.15385 13.6178 8.15111 13.6294 8.13919 13.6414L5.29501 10.8289C4.56181 11.5703 4.15385 12.5712 4.15385 13.6102H8.15385ZM8.13919 13.6414C8.12653 13.6542 8.10458 13.6656 8.07692 13.6656L8.07692 9.66557C7.02921 9.66557 6.02897 10.0867 5.29501 10.8289L8.13919 13.6414ZM8.07692 13.6656H11.9262V9.66557H8.07692V13.6656ZM11.9262 13.6656C11.9129 13.6656 11.9004 13.6629 11.8894 13.6583L13.4348 9.96889C12.9572 9.76883 12.4445 9.66557 11.9262 9.66557L11.9262 13.6656ZM11.8894 13.6583C11.8785 13.6537 11.87 13.6476 11.8639 13.6414L14.7081 10.8289C14.3448 10.4615 13.9123 10.1689 13.4348 9.96889L11.8894 13.6583ZM11.8639 13.6414C11.8578 13.6353 11.8542 13.6292 11.8521 13.6241L15.5536 12.108C15.3582 11.631 15.0713 11.1961 14.7081 10.8289L11.8639 13.6414ZM11.8521 13.6241C11.85 13.6191 11.8492 13.6144 11.8492 13.6102H15.8492C15.8492 13.0953 15.749 12.5849 15.5536 12.108L11.8521 13.6241ZM11.8492 13.6102V19.0553H15.8492V13.6102H11.8492ZM11.8492 19.0553C11.8492 19.6817 12.0951 20.287 12.5398 20.7366L15.384 17.9241C15.6844 18.2279 15.8492 18.6352 15.8492 19.0553H11.8492ZM12.5398 20.7366C12.9852 21.1871 13.5942 21.4443 14.2338 21.4443V17.4443C14.6695 17.4443 15.0828 17.6195 15.384 17.9241L12.5398 20.7366ZM14.2338 21.4443H18.0769V17.4443H14.2338V21.4443ZM18.0769 21.4443C18.7166 21.4443 19.3255 21.1871 19.771 20.7366L16.9268 17.9241C17.228 17.6195 17.6412 17.4443 18.0769 17.4443V21.4443ZM19.771 20.7366C20.2157 20.287 20.4615 19.6817 20.4615 19.0553H16.4615C16.4615 18.6352 16.6264 18.2279 16.9268 17.9241L19.771 20.7366ZM20.4615 19.0553V8.97414H16.4615V19.0553H20.4615ZM20.4615 8.97406C20.4615 8.54691 20.3698 8.12416 20.1918 7.73486L16.5538 9.39762C16.4928 9.26405 16.4615 9.11965 16.4615 8.97422L20.4615 8.97406ZM20.1918 7.73486C20.0139 7.34549 19.7535 6.99805 19.4275 6.7175L16.8187 9.74972C16.7048 9.65172 16.6149 9.53127 16.5538 9.39762L20.1918 7.73486ZM19.4268 6.71694L11.9268 0.269953L9.31935 3.3033L16.8193 9.75028L19.4268 6.71694ZM9.68454 2.11857C9.77565 2.04024 9.88762 2 10 2V-2C8.92583 -2 7.88992 -1.61353 7.077 -0.914706L9.68454 2.11857ZM10 2C10.1124 2 10.2243 2.04024 10.3155 2.11857L12.923 -0.914706C12.1101 -1.61353 11.0742 -2 10 -2V2ZM10.3156 2.11868L17.8156 8.56488L20.4229 5.53138L12.9229 -0.91482L10.3156 2.11868ZM17.8155 8.56477C17.8713 8.61281 17.9178 8.67396 17.9503 8.74493L21.588 7.0814C21.3162 6.48725 20.9192 5.95809 20.423 5.5315L17.8155 8.56477ZM17.9503 8.74493C17.9828 8.81595 18 8.89428 18 8.97425L22 8.97403C22 8.3212 21.8596 7.6755 21.588 7.0814L17.9503 8.74493ZM18 8.97414V19.0553H22V8.97414H18ZM18 19.0553C18 19.0478 18.0027 19.0362 18.0147 19.0241L20.8588 21.8367C21.592 21.0953 22 20.0944 22 19.0553L18 19.0553ZM18.0147 19.0241C18.0273 19.0113 18.0493 19 18.0769 19V23C19.1246 23 20.1249 22.5789 20.8588 21.8367L18.0147 19.0241ZM18.0769 19H14.2338V23H18.0769V19ZM14.2338 19C14.2615 19 14.2835 19.0113 14.2961 19.0241L11.4519 21.8367C12.1859 22.5789 13.1861 23 14.2338 23L14.2338 19ZM14.2961 19.0241C14.308 19.0362 14.3108 19.0478 14.3108 19.0553H10.3108C10.3108 20.0944 10.7187 21.0953 11.4519 21.8367L14.2961 19.0241ZM14.3108 19.0553V13.6102H10.3108V19.0553H14.3108ZM14.3108 13.6102C14.3108 12.9838 14.0649 12.3786 13.6202 11.9289L10.776 14.7415C10.4756 14.4377 10.3108 14.0304 10.3108 13.6102H14.3108ZM13.6202 11.9289C13.1748 11.4785 12.5658 11.2213 11.9262 11.2213V15.2213C11.4905 15.2213 11.0772 15.0461 10.776 14.7415L13.6202 11.9289ZM11.9262 11.2213H8.07692V15.2213H11.9262V11.2213ZM8.07692 11.2213C7.43724 11.2213 6.82831 11.4785 6.38287 11.9289L9.22705 14.7415C8.92586 15.0461 8.5126 15.2213 8.07692 15.2213V11.2213ZM6.38287 11.9289C5.93818 12.3786 5.69231 12.9838 5.69231 13.6102H9.69231C9.69231 14.0304 9.52748 14.4377 9.22705 14.7415L6.38287 11.9289ZM5.69231 13.6102V19.0553H9.69231V13.6102H5.69231ZM5.69231 19.0553C5.69231 19.0478 5.69505 19.0362 5.70696 19.0241L8.55114 21.8367C9.28435 21.0953 9.69231 20.0944 9.69231 19.0553H5.69231ZM5.70696 19.0241C5.71963 19.0113 5.74158 19 5.76923 19V23C6.81695 23 7.81718 22.5789 8.55114 21.8367L5.70696 19.0241ZM5.76923 19H1.92308V23H5.76923V19ZM1.92308 19C1.95073 19 1.97268 19.0113 1.98534 19.0241L-0.858832 21.8367C-0.124876 22.5789 0.875359 23 1.92308 23L1.92308 19ZM1.98534 19.0241C1.99726 19.0362 2 19.0478 2 19.0553H-2C-2 20.0944 -1.59204 21.0953 -0.858832 21.8367L1.98534 19.0241ZM2 19.0553V8.97414H-2V19.0553H2ZM2 8.97425C2 8.89428 2.01724 8.81595 2.04972 8.74493L-1.58796 7.0814C-1.85964 7.6755 -1.99996 8.32121 -2 8.97403L2 8.97425ZM2.04972 8.74493C2.08217 8.67396 2.12866 8.61281 2.18454 8.56477L-0.423001 5.5315C-0.919236 5.95809 -1.31625 6.48725 -1.58796 7.0814L2.04972 8.74493ZM2.18441 8.56488L9.68441 2.11868L7.07713 -0.91482L-0.422868 5.53138L2.18441 8.56488Z" fill="#0D0D0D" mask="url(#path-1-inside-1_1_3238)"/>
</svg>
