<svg width="42" height="46" viewBox="0 0 42 46" fill="none" xmlns="http://www.w3.org/2000/svg">
<path d="M39.7498 10.5001L41.1491 43.2426C41.1491 43.6158 40.9625 43.8645 40.5894 43.9889L35.3655 45.4814C35.3033 45.4814 35.2411 45.4814 35.1789 45.4814H27.1566C26.1615 45.4814 25.2598 45.2327 24.4513 44.7352H17.5483C16.7399 45.2327 15.8381 45.4814 14.8431 45.4814H6.82074C6.75855 45.4814 6.69636 45.4814 6.63417 45.4814L1.41029 43.9889C1.03715 43.8645 0.850586 43.6158 0.850586 43.2426L2.24984 10.5001C2.24984 9.69165 2.52969 8.91428 3.08939 8.16801C3.64909 7.42175 4.27098 6.89314 4.95506 6.58219L11.6715 3.78368L16.8954 0.798611C17.0197 0.736423 17.1441 0.705326 17.2685 0.705326H24.7312C24.8556 0.705326 24.9799 0.736423 25.1043 0.798611L30.3282 3.78368L37.0446 6.58219C37.7287 6.89314 38.3506 7.42175 38.9103 8.16801C39.47 8.91428 39.7498 9.69165 39.7498 10.5001ZM25.3842 2.66428L23.6118 24.3061L28.3692 14.1382L26.317 9.19413C26.2548 9.13194 26.2237 9.03866 26.2237 8.91428C26.2237 8.54115 26.4103 8.29239 26.7834 8.16801L29.2088 7.60831V4.90309L25.3842 2.66428ZM21.7461 28.224L23.7051 5.18294H18.2946L20.2536 28.224C20.2536 28.2862 20.2536 28.3173 20.2536 28.3173V40.071C20.2536 41.2526 19.9115 42.3098 19.2275 43.2426H22.7722C22.0881 42.3098 21.7461 41.2526 21.7461 40.071V28.3173C21.7461 28.3173 21.7461 28.2862 21.7461 28.224ZM23.7983 3.6904L23.8916 2.19786H18.108L18.2013 3.6904H23.7983ZM12.7909 4.90309V7.60831L15.2163 8.16801C15.5894 8.29239 15.776 8.54115 15.776 8.91428C15.776 9.03866 15.7449 9.13194 15.6827 9.19413L13.6304 14.1382L18.3879 24.3061L16.6155 2.66428L12.7909 4.90309ZM8.77969 31.3023L8.59312 32.7949H11.2983C11.7337 32.7949 12.0913 32.655 12.3711 32.3751C12.651 32.0953 12.7909 31.7377 12.7909 31.3023H8.77969ZM8.12671 38.0188L8.03342 39.5113H11.2983C11.7337 39.5113 12.0913 39.3714 12.3711 39.0915C12.651 38.8117 12.7909 38.4541 12.7909 38.0188H8.12671ZM7.66029 43.9889H14.8431C15.9003 43.9889 16.8176 43.6002 17.595 42.8229C18.3724 42.0455 18.761 41.1282 18.761 40.071V28.5038L12.1379 14.418C12.0757 14.3558 12.0446 14.2625 12.0446 14.1382C12.0446 14.0138 12.0757 13.9205 12.1379 13.8583L14.0036 9.3807L11.858 8.91428C11.4849 8.78991 11.2983 8.54115 11.2983 8.16801V5.55607L5.60805 7.98145C5.11054 8.16801 4.67521 8.51005 4.30208 9.00756C3.92894 9.50508 3.74238 10.0337 3.74238 10.5934L2.34312 42.6829L6.16775 43.8023L7.567 27.571L6.82074 15.724L8.31327 15.6307L9.05954 27.571C9.05954 27.571 9.05954 27.6021 9.05954 27.6643L8.87297 29.8098H13.5372C14.0347 29.8098 14.2834 30.0586 14.2834 30.5561V31.3023C14.2834 32.1108 13.988 32.8104 13.3972 33.4012C12.8064 33.992 12.1068 34.2874 11.2983 34.2874H8.49984L8.31327 36.5262H13.5372C14.0347 36.5262 14.2834 36.775 14.2834 37.2725V38.0188C14.2834 38.8272 13.988 39.5268 13.3972 40.1176C12.8064 40.7084 12.1068 41.0038 11.2983 41.0038H7.94014L7.66029 43.9889ZM35.8319 43.8023L39.6566 42.6829L38.2573 10.5934C38.2573 10.0337 38.0707 9.50508 37.6976 9.00756C37.3245 8.51005 36.8891 8.16801 36.3916 7.98145L30.7013 5.55607V8.16801C30.7013 8.54115 30.5148 8.78991 30.1416 8.91428L27.9961 9.3807L29.8618 13.8583C29.924 13.9205 29.9551 14.0138 29.9551 14.1382C29.9551 14.2625 29.924 14.3558 29.8618 14.418L28.9289 16.377H31.4476V17.8695H28.276L23.2386 28.5038V40.071C23.2386 41.1282 23.6273 42.0455 24.4047 42.8229C25.1821 43.6002 26.0993 43.9889 27.1566 43.9889H34.3394L33.4998 34.2874H30.7013C29.8929 34.2874 29.1932 33.992 28.6025 33.4012C28.0117 32.8104 27.7163 32.1108 27.7163 31.3023V30.5561C27.7163 30.0586 27.965 29.8098 28.4625 29.8098H33.1267L32.9401 27.6643C32.9401 27.6021 32.9401 27.571 32.9401 27.571L33.6864 15.6307H35.1789L34.4327 27.571L35.8319 43.8023ZM33.4066 32.7949L33.22 31.3023H29.2088C29.2088 31.7377 29.3487 32.0953 29.6286 32.3751C29.9084 32.655 30.266 32.7949 30.7013 32.7949H33.4066ZM15.776 31.3023V29.8098H17.2685V31.3023H15.776ZM15.776 35.78V34.2874H17.2685V35.78H15.776Z" fill="#A58536"/>
</svg>
