<svg width="20" height="38" viewBox="0 0 20 38" fill="none" xmlns="http://www.w3.org/2000/svg">
<path d="M19.1641 38C18.9614 38 18.7841 37.924 18.6321 37.772L0.430063 19.57C0.252729 19.418 0.164062 19.228 0.164062 19C0.164062 18.772 0.252729 18.582 0.430063 18.43L18.6321 0.228001C18.7841 0.0760006 18.9677 0 19.1831 0C19.3984 0 19.5821 0.0760006 19.7341 0.228001C19.8861 0.380001 19.9684 0.57 19.9811 0.798C19.9937 1.026 19.9114 1.216 19.7341 1.368L2.14006 19L19.7341 36.632C19.9114 36.784 20.0001 36.974 20.0001 37.202C20.0001 37.43 19.9177 37.62 19.7531 37.772C19.5884 37.924 19.3921 38 19.1641 38Z" fill="white"/>
</svg>
