<svg width="11" height="9" viewBox="0 0 11 9" fill="none" xmlns="http://www.w3.org/2000/svg">
<path d="M10.7852 3.47852C10.8711 3.41406 11 3.47852 11 3.58594V7.96875C11 8.54883 10.5273 9 9.96875 9H1.03125C0.451172 9 0 8.54883 0 7.96875V3.58594C0 3.47852 0.107422 3.41406 0.193359 3.47852C0.6875 3.86523 1.31055 4.33789 3.50195 5.92773C3.95312 6.25 4.72656 6.95898 5.5 6.95898C6.25195 6.95898 7.04688 6.25 7.47656 5.92773C9.66797 4.33789 10.291 3.86523 10.7852 3.47852ZM5.5 6.25C4.98438 6.27148 4.27539 5.62695 3.91016 5.36914C1.05273 3.30664 0.837891 3.11328 0.193359 2.59766C0.0644531 2.51172 0 2.36133 0 2.18945V1.78125C0 1.22266 0.451172 0.75 1.03125 0.75H9.96875C10.5273 0.75 11 1.22266 11 1.78125V2.18945C11 2.36133 10.9141 2.51172 10.7852 2.59766C10.1406 3.11328 9.92578 3.30664 7.06836 5.36914C6.70312 5.62695 5.99414 6.27148 5.5 6.25Z" fill="white"/>
</svg>
