<svg width="12" height="11" viewBox="0 0 12 11" fill="none" xmlns="http://www.w3.org/2000/svg">
<path d="M10.5 0.25C10.8984 0.25 11.25 0.601562 11.25 1.02344V10C11.25 10.4219 10.8984 10.75 10.5 10.75H1.47656C1.07812 10.75 0.75 10.4219 0.75 10V1.02344C0.75 0.601562 1.07812 0.25 1.47656 0.25H10.5ZM3.91406 9.25V4.25781H2.36719V9.25H3.91406ZM3.14062 3.55469C3.63281 3.55469 4.03125 3.15625 4.03125 2.66406C4.03125 2.17188 3.63281 1.75 3.14062 1.75C2.625 1.75 2.22656 2.17188 2.22656 2.66406C2.22656 3.15625 2.625 3.55469 3.14062 3.55469ZM9.75 9.25V6.50781C9.75 5.17188 9.44531 4.11719 7.875 4.11719C7.125 4.11719 6.60938 4.53906 6.39844 4.9375H6.375V4.25781H4.89844V9.25H6.44531V6.78906C6.44531 6.13281 6.5625 5.5 7.38281 5.5C8.17969 5.5 8.17969 6.25 8.17969 6.8125V9.25H9.75Z" fill="white"/>
</svg>
