<svg width="48" height="48" viewBox="0 0 48 48" fill="none" xmlns="http://www.w3.org/2000/svg">
<path d="M7.39526 42.3766C7.39526 42.3766 7.45745 42.3766 7.58183 42.3766C7.7062 42.3766 7.86168 42.4699 8.04824 42.6565C8.23481 42.843 8.3281 43.0607 8.3281 43.3095C8.3281 43.5582 8.23481 43.7759 8.04824 43.9624C7.86168 44.149 7.64402 44.2423 7.39526 44.2423C7.1465 44.2423 6.92884 44.149 6.74227 43.9624C6.55571 43.7759 6.46242 43.5582 6.46242 43.3095C6.46242 43.0607 6.55571 42.843 6.74227 42.6565C6.92884 42.4699 7.1465 42.3766 7.39526 42.3766ZM43.2628 17.0035C43.2628 17.0035 43.3328 17.0035 43.4727 17.0035C43.6126 17.0035 43.7603 17.0968 43.9158 17.2833C44.0713 17.4699 44.149 17.6876 44.149 17.9363C44.149 18.1851 44.0713 18.4027 43.9158 18.5893C43.7603 18.7759 43.5426 18.8692 43.2628 18.8692C42.9829 18.8692 42.7497 18.7759 42.5632 18.5893C42.3766 18.4027 42.2833 18.1851 42.2833 17.9363C42.2833 17.6876 42.3766 17.4699 42.5632 17.2833C42.7497 17.0968 42.9829 17.0035 43.2628 17.0035ZM46.9475 0.21244C47.1963 0.21244 47.4139 0.305725 47.6005 0.49229C47.787 0.67886 47.8803 0.896519 47.8803 1.14528V47.0408C47.8803 47.6627 47.5694 47.9736 46.9475 47.9736H18.7759C17.5943 47.9736 16.5681 47.6005 15.6975 46.8542L14.5781 45.8281C14.4537 46.45 14.1272 46.9631 13.5986 47.3673C13.07 47.7715 12.4948 47.9736 11.8729 47.9736H2.91765C2.17138 47.9736 1.51839 47.6938 0.958693 47.1341C0.398991 46.5744 0.119141 45.9214 0.119141 45.1751V29.9699C0.119141 29.2236 0.398991 28.5706 0.958693 28.0109C1.51839 27.4512 2.17138 27.1714 2.91765 27.1714H11.8729C12.8679 27.1714 13.6453 27.5756 14.205 28.3841L18.1229 24.4662L13.552 7.30199C13.4276 6.74229 13.6453 6.36916 14.205 6.18259L23.0669 3.8505V1.14528C23.0669 0.523384 23.3778 0.21244 23.9997 0.21244H46.9475ZM12.8057 45.1751V29.9699C12.8057 29.348 12.4948 29.0371 11.8729 29.0371H8.3281V39.7647C8.3281 40.3866 8.01715 40.6975 7.39526 40.6975C6.77337 40.6975 6.46242 40.3866 6.46242 39.7647V29.0371H2.91765C2.29576 29.0371 1.98481 29.348 1.98481 29.9699V45.1751C1.98481 45.797 2.29576 46.108 2.91765 46.108H11.8729C12.4948 46.108 12.8057 45.797 12.8057 45.1751ZM15.6042 7.76841L19.9885 24.093C20.0507 24.2174 20.1129 24.3418 20.1751 24.4662L21.1079 28.1975H22.9736L19.3356 14.7647C19.2734 14.5159 19.3045 14.2672 19.4288 14.0184C19.5532 13.7697 19.7398 13.6142 19.9885 13.552C20.6726 13.4276 21.1857 13.0545 21.5277 12.4326C21.8698 11.8107 21.9475 11.1577 21.7609 10.4736C21.6987 10.2249 21.7298 9.99167 21.8542 9.77401C21.9786 9.55635 22.1652 9.41642 22.4139 9.35423L23.0669 9.16766V5.71617L15.6042 7.76841ZM23.0669 13.4587C22.6316 14.1428 22.0719 14.6714 21.3878 15.0445L23.0669 21.3878V13.4587ZM36.4997 46.108C36.8107 46.108 37.1061 45.9836 37.3859 45.7348C37.6658 45.4861 37.8057 45.1751 37.8057 44.802C37.8057 44.4289 37.6658 44.1179 37.3859 43.8692C37.1061 43.6204 36.8107 43.496 36.4997 43.496H29.3169C28.695 43.496 28.3841 43.1851 28.3841 42.5632C28.3841 41.9413 28.695 41.6303 29.3169 41.6303H39.6714C40.0445 41.6303 40.3555 41.506 40.6042 41.2572C40.853 41.0085 40.9773 40.6975 40.9773 40.3244C40.9773 39.9512 40.853 39.6403 40.6042 39.3915C40.3555 39.1428 40.0445 39.0184 39.6714 39.0184H29.3169C28.695 39.0184 28.3841 38.7075 28.3841 38.0856C28.3841 37.4637 28.695 37.1527 29.3169 37.1527H41.6303C42.0035 37.1527 42.3144 37.0284 42.5632 36.7796C42.8119 36.5308 42.9363 36.2199 42.9363 35.8468C42.9363 35.4736 42.8119 35.1627 42.5632 34.9139C42.3144 34.6652 42.0035 34.5408 41.6303 34.5408H29.3169C28.695 34.5408 28.3841 34.2299 28.3841 33.608C28.3841 32.9861 28.695 32.6751 29.3169 32.6751H38.7385C39.1117 32.6751 39.4226 32.5507 39.6714 32.302C39.9201 32.0532 40.0445 31.7423 40.0445 31.3692C40.0445 30.996 39.9201 30.6851 39.6714 30.4363C39.4226 30.1876 39.1117 30.0632 38.7385 30.0632H20.3617C19.9264 30.0632 19.6465 29.8144 19.5221 29.3169L18.7759 26.4251L14.6714 30.5296V43.4027L16.9102 45.455C17.4699 45.8903 18.0918 46.108 18.7759 46.108H36.4997ZM46.0147 46.108V2.07811H24.9326V28.1975H26.7982V9.63408C26.7982 9.01219 27.1092 8.70124 27.7311 8.70124C28.4152 8.70124 28.9904 8.45249 29.4568 7.95498C29.9232 7.45747 30.1565 6.86667 30.1565 6.18259C30.1565 5.5607 30.4674 5.24975 31.0893 5.24975H39.8579C40.4798 5.24975 40.7908 5.5607 40.7908 6.18259C40.7908 6.86667 41.024 7.45747 41.4904 7.95498C41.9568 8.45249 42.5321 8.70124 43.2162 8.70124C43.838 8.70124 44.149 9.01219 44.149 9.63408V13.3654C44.149 13.9873 43.838 14.2983 43.2162 14.2983C42.5943 14.2983 42.2833 13.9873 42.2833 13.3654V10.4736C41.7858 10.3493 41.3038 10.1316 40.8374 9.82065C40.371 9.5097 39.9823 9.12102 39.6714 8.65461C39.3604 8.18819 39.1428 7.67513 39.0184 7.11543H31.9288C31.7423 7.92388 31.3536 8.63906 30.7628 9.26095C30.172 9.88284 29.4724 10.2871 28.6639 10.4736V28.1975H33.7012C31.8977 27.4512 30.996 26.0831 30.996 24.093C30.996 23.2846 31.1981 22.5383 31.6023 21.8542C32.0066 21.1702 32.5507 20.626 33.2348 20.2218C33.9189 19.8175 34.6652 19.6154 35.4736 19.6154C36.7174 19.6154 37.7746 20.0507 38.6453 20.9214C39.5159 21.792 39.9512 22.8493 39.9512 24.093C39.9512 26.0831 39.0495 27.4512 37.246 28.1975H38.7385C39.6092 28.1975 40.3555 28.5085 40.9773 29.1304C41.5992 29.7522 41.9102 30.4985 41.9102 31.3692C41.9102 31.8045 41.8169 32.2398 41.6303 32.6751C41.8791 32.6751 42.0968 32.7062 42.2833 32.7684V22.1341C42.2833 21.5122 42.5943 21.2012 43.2162 21.2012C43.838 21.2012 44.149 21.5122 44.149 22.1341V33.9811C44.5843 34.5408 44.802 35.1627 44.802 35.8468C44.802 36.3443 44.7087 36.7952 44.5221 37.1994C44.3356 37.6036 44.0557 37.9612 43.6826 38.2721C43.3094 38.5831 42.9052 38.8007 42.4699 38.9251C42.7186 39.3604 42.843 39.8269 42.843 40.3244C42.843 40.8841 42.7031 41.4127 42.4232 41.9102C42.1434 42.4077 41.7547 42.7964 41.2572 43.0762C40.7597 43.3561 40.2311 43.496 39.6714 43.496H39.3915C39.5781 43.9313 39.6714 44.3667 39.6714 44.802C39.6714 45.2373 39.5781 45.6726 39.3915 46.108H46.0147ZM34.1676 26.3318C34.1676 26.3318 34.2609 26.394 34.4475 26.5184C34.6341 26.6428 34.9761 26.705 35.4736 26.705C35.9711 26.705 36.4065 26.5806 36.7796 26.3318C37.1527 26.0831 37.4637 25.7721 37.7124 25.399C37.9612 25.0259 38.0856 24.5905 38.0856 24.093C38.0856 23.3468 37.8368 22.7249 37.3393 22.2274C36.8418 21.7299 36.2199 21.4811 35.4736 21.4811C34.7273 21.4811 34.1055 21.7299 33.6079 22.2274C33.1104 22.7249 32.8617 23.3468 32.8617 24.093C32.8617 24.5905 32.9861 25.0259 33.2348 25.399C33.4836 25.7721 33.7945 26.0831 34.1676 26.3318Z" fill="#A58536"/>
</svg>
