<svg width="12" height="11" viewBox="0 0 12 11" fill="none" xmlns="http://www.w3.org/2000/svg">
<path d="M10.9375 8.15234C11.1094 8.23828 11.2383 8.43164 11.2383 8.64648C11.2383 8.66797 11.2383 8.71094 11.2383 8.75391L10.7227 10.9883C10.6582 11.2246 10.4648 11.375 10.2285 11.375C4.70703 11.375 0.259766 6.92773 0.259766 1.40625C0.259766 1.16992 0.410156 0.976562 0.646484 0.912109L2.88086 0.396484C2.92383 0.396484 2.9668 0.375 2.98828 0.375C3.20312 0.375 3.39648 0.503906 3.48242 0.697266L4.51367 3.10352C4.53516 3.16797 4.55664 3.23242 4.55664 3.29688C4.55664 3.46875 4.4707 3.61914 4.36328 3.70508L3.05273 4.7793C3.84766 6.45508 5.17969 7.78711 6.85547 8.58203L7.92969 7.27148C8.01562 7.16406 8.16602 7.07812 8.31641 7.07812C8.40234 7.07812 8.4668 7.09961 8.53125 7.12109L10.9375 8.15234Z" fill="white"/>
</svg>
