<svg width="20" height="38" viewBox="0 0 20 38" fill="none" xmlns="http://www.w3.org/2000/svg">
<path d="M1.00006 38C0.772062 38 0.575729 37.924 0.411062 37.772C0.246396 37.62 0.164062 37.43 0.164062 37.202C0.164062 36.974 0.252729 36.784 0.430063 36.632L18.0621 19L0.430063 1.368C0.252729 1.216 0.164062 1.026 0.164062 0.798C0.164062 0.57 0.252729 0.380001 0.430063 0.228001C0.607396 0.0760002 0.797396 0 1.00006 0C1.20273 0 1.39273 0.0760002 1.57006 0.228001L19.7341 18.43C19.9114 18.582 20.0001 18.772 20.0001 19C20.0001 19.228 19.9114 19.418 19.7341 19.57L1.57006 37.772C1.39273 37.924 1.20273 38 1.00006 38Z" fill="white"/>
</svg>
