<svg width="19" height="19" viewBox="0 0 19 19" fill="none" xmlns="http://www.w3.org/2000/svg">
<path d="M0.0922482 17.0221C-0.109819 16.2062 0.0200812 15.4398 0.48195 14.7228C0.943819 13.9811 1.60776 13.4743 2.47376 13.2023C3.33976 12.9304 4.16247 12.9675 4.94187 13.3136L5.63467 13.6103C5.72127 13.6597 5.82231 13.6721 5.93777 13.6474C6.05324 13.6226 6.12541 13.5732 6.15428 13.499L7.92958 10.6435L9.05539 12.4606L6.06768 17.2817C5.60581 17.9987 4.92744 18.5055 4.03257 18.8022C3.19543 19.0989 2.37994 19.0618 1.5861 18.691C0.792268 18.3201 0.294316 17.7638 0.0922482 17.0221ZM1.17475 15.0566C0.799485 15.6252 0.691234 16.2062 0.850002 16.7996C1.00877 17.393 1.37682 17.8256 1.95416 18.0976C2.27169 18.2459 2.60366 18.3201 2.95006 18.3201C3.2676 18.2954 3.5707 18.2336 3.85937 18.1347C4.5233 17.8874 5.02847 17.4919 5.37487 16.948L6.11098 15.7612C6.25531 15.514 6.28418 15.2544 6.19758 14.9824C6.11098 14.7105 5.92334 14.5127 5.63467 14.3891L4.55217 13.907C3.94597 13.635 3.3109 13.6226 2.64696 13.8699C1.98302 14.0924 1.49229 14.488 1.17475 15.0566ZM14.0782 13.3136C14.8576 12.9427 15.6803 12.8995 16.5463 13.1838C17.4123 13.4681 18.0763 13.9811 18.5381 14.7228C19 15.4398 19.1155 16.2062 18.8845 17.0221C18.7113 17.7638 18.2278 18.3201 17.434 18.691C16.6401 19.0618 15.8247 19.0989 14.9875 18.8022C14.0638 18.5055 13.3854 17.9987 12.9524 17.2817L3.64286 2.29928C3.41193 1.87898 3.37585 1.44632 3.53461 1.0013C3.69338 0.556276 4.0037 0.222511 4.46557 0L12.8225 13.499C12.8802 13.5732 12.9596 13.6226 13.0607 13.6474C13.1617 13.6721 13.2699 13.6597 13.3854 13.6103L14.0782 13.3136ZM18.1484 16.7625C18.235 16.3669 18.2206 15.9776 18.1051 15.5943C17.9897 15.2111 17.7732 14.865 17.4556 14.556C17.1381 14.2469 16.7628 14.0059 16.3298 13.8328C15.6948 13.6103 15.0741 13.635 14.4679 13.907L13.3854 14.3891C13.0967 14.5127 12.9091 14.7105 12.8225 14.9824C12.7359 15.2544 12.7648 15.514 12.9091 15.7612L13.6452 16.948C13.9916 17.4919 14.4968 17.8874 15.1607 18.1347C15.4494 18.2336 15.7525 18.2954 16.07 18.3201C16.4164 18.3201 16.7484 18.2459 17.0659 18.0976C17.6721 17.8009 18.033 17.3559 18.1484 16.7625ZM14.5545 0C15.0164 0.222511 15.3339 0.556276 15.5071 1.0013C15.6515 1.44632 15.5937 1.87898 15.3339 2.29928L11.9998 7.71373L10.874 5.93364L14.5545 0Z" fill="#A58536"/>
</svg>
