<svg width="24" height="24" viewBox="0 0 24 24" fill="none" xmlns="http://www.w3.org/2000/svg">
<path fill-rule="evenodd" clip-rule="evenodd" d="M10.0972 18.3409C5.37846 18.3409 1.55322 14.5822 1.55322 9.93825C1.55322 5.2943 5.37846 1.52813 10.0972 1.52813C14.8159 1.52813 18.6419 5.2943 18.6419 9.93825C18.6419 14.5822 14.8159 18.3409 10.0972 18.3409ZM23.7721 22.6946L17.5763 16.5952C19.1982 14.8321 20.1952 12.5064 20.1952 9.94061C20.1952 4.44889 15.6745 0 10.0976 0C4.52067 0 0 4.44889 0 9.94061C0 15.4248 4.52067 19.8737 10.0976 19.8737C12.5072 19.8737 14.7173 19.0409 16.4532 17.653L22.6738 23.7749C22.9777 24.075 23.4691 24.075 23.7721 23.7749C24.076 23.4823 24.076 22.9947 23.7721 22.6946Z" fill="#0D0D0D"/>
</svg>
