<svg width="48" height="44" viewBox="0 0 48 44" fill="none" xmlns="http://www.w3.org/2000/svg">
<path d="M8.98108 42.4289C9.4164 42.4289 9.63407 42.6621 9.63407 43.1285C9.63407 43.5949 9.4164 43.8281 8.98108 43.8281H4.3169C3.1975 43.8281 2.21802 43.4083 1.37847 42.5688C0.538917 41.7292 0.119141 40.7498 0.119141 39.6304V34.4065C0.119141 33.9712 0.367897 33.7535 0.865409 33.7535H9.63407V30.2087H8.8878C8.39028 30.2087 7.97051 30.0377 7.62847 29.6957C7.28643 29.3536 7.11541 28.9338 7.11541 28.4363V27.2236H6.74227C5.68506 27.2236 4.81441 26.835 4.13033 26.0576C3.44625 25.2802 3.1664 24.363 3.29078 23.3057L4.22362 12.7647C4.41019 11.2722 5.03208 10.0439 6.08929 9.07999C7.1465 8.11606 8.39028 7.6341 9.82063 7.6341V5.95499C9.82063 5.45748 10.0538 5.20872 10.5203 5.20872C10.9867 5.20872 11.2199 5.45748 11.2199 5.95499V7.6341H14.6714C15.1067 7.6341 15.3244 7.86731 15.3244 8.33372C15.3244 8.80014 15.1067 9.03335 14.6714 9.03335H9.82063C8.76342 9.03335 7.83058 9.40648 7.02213 10.1528C6.21367 10.899 5.74725 11.8008 5.62287 12.858L4.69004 23.4923C4.62785 24.1142 4.79887 24.6583 5.2031 25.1248C5.60732 25.5912 6.12038 25.8244 6.74227 25.8244H13.7385C14.9201 25.8244 15.6664 25.2336 15.9773 24.052L16.8169 20.9736C17.0035 20.2896 17.3611 19.7454 17.8897 19.3412C18.4183 18.937 19.0246 18.7348 19.7087 18.7348H30.7162C31.4624 18.7348 32.1154 19.0147 32.6751 19.5744C33.2348 20.1341 33.5147 20.7871 33.5147 21.5333V32.3542C33.5147 32.8518 33.3903 33.3182 33.1415 33.7535C32.8928 34.1888 32.5507 34.5309 32.1154 34.7796C31.6801 35.0284 31.2137 35.1528 30.7162 35.1528H28.3841C27.8866 35.1528 27.6378 34.9195 27.6378 34.4531C27.6378 33.9867 27.8866 33.7535 28.3841 33.7535H30.7162C31.0893 33.7535 31.4158 33.6136 31.6956 33.3337C31.9755 33.0539 32.1154 32.7274 32.1154 32.3542V21.5333C32.1154 21.1602 31.9755 20.8337 31.6956 20.5539C31.4158 20.274 31.0893 20.1341 30.7162 20.1341H19.7087C18.9002 20.1341 18.3716 20.5383 18.1229 21.3468L17.3766 24.4251C17.19 24.9848 16.9257 25.4668 16.5837 25.871C16.2417 26.2753 15.8219 26.6018 15.3244 26.8505C14.8269 27.0993 14.2982 27.2236 13.7385 27.2236H13.6453V28.4363C13.6453 28.9338 13.4587 29.3536 13.0856 29.6957C12.7124 30.0377 12.3082 30.2087 11.8729 30.2087H11.0333V33.7535H25.5856C26.0209 33.7535 26.2385 33.9867 26.2385 34.4531C26.2385 34.9195 26.0209 35.1528 25.5856 35.1528H15.6975V36.9251C15.6975 37.4227 15.4487 37.6714 14.9512 37.6714H6.08929C5.59178 37.6714 5.34302 37.4227 5.34302 36.9251V35.1528H1.51839V39.6304C1.51839 40.3766 1.79825 41.0296 2.35795 41.5893C2.91765 42.149 3.57063 42.4289 4.3169 42.4289H8.98108ZM8.51466 28.4363C8.51466 28.6851 8.63904 28.8095 8.8878 28.8095H11.8729C12.0594 28.8095 12.1527 28.6851 12.1527 28.4363V27.2236H8.51466V28.4363ZM14.205 36.2722V35.1528H6.83556V36.2722H14.205ZM42.2833 7.6341C43.838 7.6341 45.1596 8.17825 46.2479 9.26656C47.3362 10.3549 47.8803 11.6764 47.8803 13.2311V39.6304C47.8803 40.7498 47.4606 41.7292 46.621 42.5688C45.7815 43.4083 44.802 43.8281 43.6826 43.8281H11.7796C11.2821 43.8281 11.0333 43.5949 11.0333 43.1285C11.0333 42.6621 11.2821 42.4289 11.7796 42.4289H43.6826C44.4288 42.4289 45.0818 42.149 45.6415 41.5893C46.2012 41.0296 46.4811 40.3766 46.4811 39.6304V13.2311C46.4811 12.4848 46.2945 11.7852 45.9214 11.1322C45.5482 10.4792 45.0352 9.96619 44.3822 9.59305C43.7292 9.21992 43.0296 9.03335 42.2833 9.03335H17.4699C16.9724 9.03335 16.7236 8.80014 16.7236 8.33372C16.7236 7.86731 16.9724 7.6341 17.4699 7.6341H36.1266V2.69007C36.1266 2.19255 36.3754 1.9438 36.8729 1.9438H38.0856V1.01096C38.0856 0.575638 38.3343 0.357979 38.8318 0.357979C39.3293 0.357979 39.5781 0.575638 39.5781 1.01096V1.9438H40.8841C41.3194 1.9438 41.537 2.19255 41.537 2.69007V7.6341H42.2833ZM37.5259 3.34305V7.6341H40.1378V3.34305H37.5259ZM37.7124 19.5744C37.7124 19.5744 37.8834 19.4034 38.2255 19.0613C38.5675 18.7193 39.2205 18.5483 40.1844 18.5483C41.1484 18.5483 41.9568 18.8903 42.6098 19.5744C43.2628 20.2585 43.5893 21.0825 43.5893 22.0464C43.5893 23.0103 43.2628 23.8343 42.6098 24.5184C41.9568 25.2025 41.1328 25.5445 40.1378 25.5445C39.5159 25.5445 38.9407 25.3891 38.412 25.0781C37.8834 24.7672 37.4637 24.3474 37.1527 23.8188C36.8418 23.2902 36.6863 22.6838 36.6863 21.9998C36.6863 21.0669 37.0283 20.2585 37.7124 19.5744ZM38.6919 23.4923C38.6919 23.4923 38.793 23.5856 38.9951 23.7722C39.1972 23.9587 39.5781 24.052 40.1378 24.052C40.6975 24.052 41.1795 23.8654 41.5837 23.4923C41.9879 23.1192 42.19 22.6372 42.19 22.0464C42.19 21.4556 41.9879 20.9581 41.5837 20.5539C41.1795 20.1496 40.6975 19.9475 40.1378 19.9475C39.5781 19.9475 39.0961 20.1496 38.6919 20.5539C38.2877 20.9581 38.0856 21.4556 38.0856 22.0464C38.0856 22.6372 38.2877 23.1192 38.6919 23.4923ZM28.0109 14.4438H25.8654C25.4301 14.4438 25.2124 14.2106 25.2124 13.7442C25.2124 13.2778 25.4301 13.0445 25.8654 13.0445H28.0109C28.5084 13.0445 28.7572 13.2778 28.7572 13.7442C28.7572 14.2106 28.5084 14.4438 28.0109 14.4438ZM42.3766 13.0445C42.8119 13.0445 43.0296 13.2778 43.0296 13.7442C43.0296 14.2106 42.8119 14.4438 42.3766 14.4438H31.2759C30.8405 14.4438 30.6229 14.2106 30.6229 13.7442C30.6229 13.2778 30.8405 13.0445 31.2759 13.0445H42.3766Z" fill="#A58536"/>
</svg>
