<svg width="14" height="12" viewBox="0 0 14 12" fill="none" xmlns="http://www.w3.org/2000/svg">
<path fill-rule="evenodd" clip-rule="evenodd" d="M3.4034 0.188963C3.65535 -0.0629878 4.06384 -0.0629878 4.31579 0.188963L6.89644 2.76961C7.14839 3.02156 7.14839 3.43005 6.89644 3.682C6.64449 3.93395 6.23599 3.93395 5.98404 3.682L4.50476 2.20272L4.50476 10.9677C4.50476 11.3241 4.21591 11.6129 3.8596 11.6129C3.50328 11.6129 3.21443 11.3241 3.21443 10.9677L3.21443 2.20272L1.73515 3.682C1.4832 3.93395 1.0747 3.93395 0.822752 3.682C0.570801 3.43005 0.570801 3.02156 0.822752 2.76961L3.4034 0.188963Z" fill="#A58536"/>
<path fill-rule="evenodd" clip-rule="evenodd" d="M11.1972 11.4243C10.9452 11.6763 10.5367 11.6763 10.2848 11.4243L7.70415 8.84367C7.4522 8.59172 7.4522 8.18323 7.70415 7.93128C7.9561 7.67933 8.36459 7.67933 8.61654 7.93128L10.0958 9.41056L10.0958 0.645541C10.0958 0.289229 10.3847 0.000380203 10.741 0.000380234C11.0973 0.000380265 11.3862 0.289229 11.3862 0.645541L11.3862 9.41056L12.8654 7.93128C13.1174 7.67933 13.5259 7.67933 13.7778 7.93128C14.0298 8.18323 14.0298 8.59172 13.7778 8.84367L11.1972 11.4243Z" fill="#A58536"/>
</svg>
