<svg width="15" height="15" viewBox="0 0 15 15" fill="none" xmlns="http://www.w3.org/2000/svg">
<path d="M6.68899 0.654909L4.89475 4.45165L0.889747 5.06041C0.676147 5.08177 0.497257 5.18857 0.353077 5.38081C0.208897 5.57305 0.139477 5.79199 0.144817 6.03763C0.150157 6.28327 0.238267 6.49153 0.409147 6.66241L3.29275 9.59407L2.61991 13.8073C2.57719 14.0423 2.61991 14.2532 2.74807 14.4401C2.87623 14.627 3.04978 14.7498 3.26872 14.8086C3.48766 14.8673 3.69325 14.8433 3.88549 14.7365L7.48999 12.8621L11.0945 14.7365C11.3081 14.8433 11.5244 14.8673 11.7433 14.8086C11.9622 14.7498 12.1304 14.627 12.2479 14.4401C12.3654 14.2532 12.4028 14.0423 12.3601 13.8073L11.7032 9.59407L14.5708 6.66241C14.7417 6.49153 14.8298 6.28861 14.8352 6.05365C14.8405 5.81869 14.7737 5.60509 14.6349 5.41285C14.4961 5.22061 14.3198 5.10313 14.1062 5.06041L10.1012 4.45165L8.29099 0.654909C8.18419 0.441309 8.02399 0.294459 7.81039 0.214359C7.59679 0.134259 7.38319 0.134259 7.16959 0.214359C6.95599 0.294459 6.79579 0.441309 6.68899 0.654909Z" fill="#A58536"/>
</svg>
