<svg width="20" height="20" viewBox="0 0 20 20" fill="none" xmlns="http://www.w3.org/2000/svg">
<path fill-rule="evenodd" clip-rule="evenodd" d="M10 20C15.5228 20 20 15.5228 20 10C20 4.47715 15.5228 0 10 0C4.47715 0 0 4.47715 0 10C0 15.5228 4.47715 20 10 20ZM3.29206 15.1587C2.19243 13.7308 1.53849 11.942 1.53849 10.0004C1.53849 5.32726 5.32685 1.5389 10 1.5389C14.6732 1.5389 18.4616 5.32726 18.4616 10.0004C18.4616 11.9425 17.8073 13.7317 16.7072 15.1597C16.2052 14.7043 15.5635 14.3749 14.719 14.071C14.5925 14.0254 14.4629 13.9807 14.3011 13.9263L13.907 13.7943C12.9487 13.471 12.6097 13.2656 12.5308 13.0058C12.5281 12.997 12.5239 12.9808 12.5179 12.9492C12.4838 12.7692 12.4916 12.5723 12.5616 12.4089C12.603 12.3126 12.666 12.2268 12.7604 12.1478C13.8231 11.1885 14.3588 10.1073 14.3588 8.6325C14.3588 6.06311 12.3485 4.10238 9.99986 4.10238C7.63509 4.10238 5.64089 6.02969 5.64089 8.6325C5.64089 10.1029 6.16268 11.1526 7.18748 12.1176C7.31934 12.2289 7.38556 12.3103 7.43059 12.3957C7.51775 12.5609 7.52891 12.7525 7.49073 12.9289C7.488 12.9415 7.48572 12.951 7.48429 12.957C7.48258 12.9641 7.48208 12.9662 7.4835 12.9624C7.40759 13.232 7.09317 13.4257 6.20712 13.7284L5.75319 13.8817C5.56387 13.9459 5.41336 13.9986 5.26605 14.053C4.43566 14.3595 3.79402 14.698 3.29206 15.1587ZM4.33959 16.29C5.83889 17.6402 7.82349 18.462 10 18.462C12.176 18.462 14.1601 17.6406 15.6593 16.291C15.3235 15.9934 14.8582 15.7561 14.198 15.5185C14.0832 15.4772 13.963 15.4357 13.8106 15.3844L13.4152 15.2521C11.984 14.7692 11.3398 14.3789 11.0626 13.465C11.0451 13.4107 11.0248 13.3333 11.0063 13.2357C10.9201 12.7808 10.9396 12.2878 11.1477 11.8026C11.2831 11.4869 11.4911 11.2037 11.7514 10.9869C12.4845 10.3245 12.8204 9.64663 12.8204 8.6325C12.8204 6.9215 11.5073 5.64084 9.99986 5.64084C8.47323 5.64084 7.17935 6.89133 7.17935 8.6325C7.17935 9.64566 7.50747 10.3057 8.20549 10.9652C8.45642 11.173 8.65168 11.4131 8.79135 11.6779C9.07073 12.2075 9.10258 12.7545 8.99436 13.2544C8.97221 13.3567 8.94785 13.4381 8.94777 13.4291C8.70554 14.3287 8.07914 14.7147 6.7044 15.1843L6.24752 15.3385C6.06996 15.3988 5.93132 15.4474 5.79875 15.4963C5.14627 15.7371 4.67822 15.9831 4.33959 16.29Z" fill="#0D0D0D"/>
</svg>
