<svg width="48" height="56" viewBox="0 0 48 56" fill="none" xmlns="http://www.w3.org/2000/svg">
<path d="M37.8166 0.799892C40.548 0.799892 42.9 1.78621 44.8726 3.75885C46.8452 5.73148 47.8316 8.08347 47.8316 10.8148V47.2327C47.8316 47.8397 47.5281 48.1432 46.9211 48.1432H40.548V54.5163C40.548 55.1233 40.2445 55.4268 39.6375 55.4268H8.68231C8.07535 55.4268 7.77186 55.1233 7.77186 54.5163V48.1432H1.39873C0.791764 48.1432 0.488281 47.8397 0.488281 47.2327V10.8148C0.488281 8.08347 1.4746 5.73148 3.44724 3.75885C5.41987 1.78621 7.77186 0.799892 10.5032 0.799892H37.8166ZM31.5573 12.1805C31.4814 12.0287 31.4435 11.877 31.4435 11.7253C31.4435 11.4218 31.5952 11.1562 31.8987 10.9286L36.451 7.85586L32.6954 3.41743L26.0946 20.0331L33.0368 15.1394L31.5573 12.1805ZM16.4211 10.9286C16.7246 11.1562 16.8763 11.4218 16.8763 11.7253C16.8763 11.877 16.8384 12.0287 16.7625 12.1805L15.2831 15.1394L22.2252 20.0331L15.6245 3.41743L11.8689 7.85586L16.4211 10.9286ZM17.3316 2.62079L24.1599 20.1469L30.9883 2.62079H17.3316ZM46.0107 46.3223V10.8148C46.0107 8.5387 45.214 6.604 43.6207 5.01071C42.0275 3.41743 40.0928 2.62079 37.8166 2.62079H34.2887L38.4995 7.51444C38.6512 7.66618 38.7271 7.85586 38.7271 8.08347C38.7271 8.38696 38.5753 8.6525 38.2719 8.88012L33.492 12.0667L34.9715 14.9118C35.0474 15.0636 35.0853 15.2153 35.0853 15.3671C35.0853 15.6705 34.9715 15.8982 34.7439 16.0499L25.0704 23.1059V29.9342H23.2495V23.1059L13.576 16.0499C13.3484 15.8982 13.2346 15.6705 13.2346 15.3671C13.2346 15.2153 13.2725 15.0636 13.3484 14.9118L14.8278 12.0667L10.048 8.88012C9.7445 8.6525 9.59276 8.38696 9.59276 8.08347C9.59276 7.85586 9.66863 7.66618 9.82037 7.51444L14.0312 2.62079H10.5032C8.22709 2.62079 6.29239 3.41743 4.6991 5.01071C3.10582 6.604 2.30918 8.5387 2.30918 10.8148V46.3223H7.99948L11.4137 33.576L7.77186 14.5704L9.59276 14.3428L13.2346 33.4622C13.2346 33.4622 13.2346 33.5001 13.2346 33.576C13.2346 33.6519 13.2346 33.7278 13.2346 33.8036L9.59276 47.3465V53.6059H38.7271V47.3465L35.0853 33.8036C35.0853 33.7278 35.0853 33.6519 35.0853 33.576C35.0853 33.5001 35.0853 33.4622 35.0853 33.4622L38.7271 14.3428L40.548 14.5704L36.9062 33.576L40.3204 46.3223H46.0107ZM23.2495 31.7551H25.0704V33.576H23.2495V31.7551ZM23.2495 35.3969H25.0704V37.2178H23.2495V35.3969ZM23.2495 39.0387H25.0704V40.8596H23.2495V39.0387ZM23.2495 42.6805H25.0704V44.5014H23.2495V42.6805ZM23.2495 46.3223H25.0704V48.1432H23.2495V46.3223ZM23.2495 49.9641H25.0704V51.785H23.2495V49.9641ZM27.8017 22.6506H35.0853V24.4715H27.8017V22.6506Z" fill="#A58536"/>
</svg>
