<svg width="14" height="9" viewBox="0 0 14 9" fill="none" xmlns="http://www.w3.org/2000/svg">
<path d="M13.4922 1.42969C13.7734 2.41406 13.7734 4.52344 13.7734 4.52344C13.7734 4.52344 13.7734 6.60938 13.4922 7.61719C13.3516 8.17969 12.9062 8.60156 12.3672 8.74219C11.3594 9 7.375 9 7.375 9C7.375 9 3.36719 9 2.35938 8.74219C1.82031 8.60156 1.375 8.17969 1.23438 7.61719C0.953125 6.60938 0.953125 4.52344 0.953125 4.52344C0.953125 4.52344 0.953125 2.41406 1.23438 1.42969C1.375 0.867188 1.82031 0.421875 2.35938 0.28125C3.36719 0 7.375 0 7.375 0C7.375 0 11.3594 0 12.3672 0.28125C12.9062 0.421875 13.3516 0.867188 13.4922 1.42969ZM6.0625 6.42188L9.39062 4.52344L6.0625 2.625V6.42188Z" fill="white"/>
</svg>
